<?xml version="1.0" encoding="utf-8"?>
<!DOCTYPE svg PUBLIC "-//W3C//DTD SVG 1.1//EN" "http://www.w3.org/Graphics/SVG/1.1/DTD/svg11.dtd">
<svg style="width:308px;height:308px;" version="1.1" id="图形" xmlns="http://www.w3.org/2000/svg" xmlns:xlink="http://www.w3.org/1999/xlink" x="0px" y="0px" width="1024px" height="1024px" viewBox="0 0 1024 1024" enable-background="new 0 0 1024 1024" xml:space="preserve">
  <path class="svgpath" data-index="path_0" fill="#272636" d="M512.883113 1014.877225l-14.597463-17.48421c-0.874927-1.046842-88.477101-106.244766-174.877913-233.589083-117.460202-173.121919-177.017646-303.223023-177.017646-386.686946 0-97.893564 38.122249-189.927677 107.343797-259.149225S414.989549 10.626012 512.883113 10.626012c97.894587 0 189.9287 38.122249 259.152295 107.342774 69.221548 69.221548 107.343797 161.254637 107.343797 259.149225 0 83.463923-59.558467 213.565027-177.020716 386.686946-86.401836 127.344317-174.002986 232.541217-174.877913 233.589083L512.883113 1014.877225zM512.883113 48.65821c-181.113941 0-328.4598 147.34586-328.4598 328.458777 0 74.603115 58.884109 200.846354 170.286338 365.078813 64.585971 95.214549 129.860626 177.903829 158.174486 212.95616 28.312836-35.050284 93.588515-117.740588 158.175509-212.95616C782.461875 577.963341 841.345983 451.721125 841.345983 377.116987 841.345983 196.005093 693.998077 48.65821 512.883113 48.65821z" />
<path class="svgpath" data-index="path_1" fill="#272636" d="M512.883113 181.664479c-107.945501 0-195.454554 87.50803-195.454554 195.454554 0 107.950617 87.50803 195.4566 195.454554 195.4566 107.948571 0 195.457624-87.505983 195.457624-195.4566C708.340737 269.171486 620.831684 181.664479 512.883113 181.664479zM512.883113 529.141402c-83.959204 0-152.021346-68.064188-152.021346-152.024415 0-83.957157 68.062142-152.021346 152.021346-152.021346s152.021346 68.064188 152.021346 152.021346C664.904459 461.077214 596.84334 529.141402 512.883113 529.141402z" />

</svg>
