<?xml version="1.0" standalone="no"?><!DOCTYPE svg PUBLIC "-//W3C//DTD SVG 1.1//EN" "http://www.w3.org/Graphics/SVG/1.1/DTD/svg11.dtd"><svg width="200" height="200" viewBox="0 0 200 200" version="1.1" xmlns="http://www.w3.org/2000/svg" xmlns:xlink="http://www.w3.org/1999/xlink"><defs><style type="text/css"><![CDATA[
@font-face { font-family: ifont; src: url("http://at.alicdn.com/t/font_1442373896_4754455.eot?#iefix") format("embedded-opentype"), url("http://at.alicdn.com/t/font_1442373896_4754455.woff") format("woff"), url("http://at.alicdn.com/t/font_1442373896_4754455.ttf") format("truetype"), url("http://at.alicdn.com/t/font_1442373896_4754455.svg#ifont") format("svg"); }

]]></style></defs><g class="transform-group"><g transform="scale(0.1953125, 0.1953125)"><path d="M818.324249 253.255422c-94.405107-95.745969-190.611998-71.778051-259.289304 0L511.895245 301.694083l-47.1397-48.438661c-68.719208-71.778051-165.093707-97.170636-259.289304 0-69.138227 71.359031-64.361404 193.628939 4.357803 265.406989l302.071201 315.77314 302.071201-315.77314C882.643752 446.926262 888.049104 323.985924 818.324249 253.255422zM771.184549 495.406825l-259.289304 266.370734-259.289304-266.370734c-61.595875-64.319502-61.595875-153.570669 0-217.890171 61.595875-64.361404 126.962927-40.142074 188.558802 24.219331l70.730502 72.61609L582.583845 301.694083c61.637777-64.361404 127.046731-88.580735 188.600704-24.219331C832.780424 341.836157 832.780424 431.087323 771.184549 495.406825z" fill="#272636"></path></g></g></svg>