<?xml version="1.0" standalone="no"?><!DOCTYPE svg PUBLIC "-//W3C//DTD SVG 1.1//EN" "http://www.w3.org/Graphics/SVG/1.1/DTD/svg11.dtd"><svg width="200" height="200" viewBox="0 0 200 200" version="1.1" xmlns="http://www.w3.org/2000/svg" xmlns:xlink="http://www.w3.org/1999/xlink"><defs><style type="text/css"><![CDATA[
@font-face { font-family: ifont; src: url("//at.alicdn.com/t/font_1442373896_4754455.eot?#iefix") format("embedded-opentype"), url("//at.alicdn.com/t/font_1442373896_4754455.woff") format("woff"), url("//at.alicdn.com/t/font_1442373896_4754455.ttf") format("truetype"), url("//at.alicdn.com/t/font_1442373896_4754455.svg#ifont") format("svg"); }

]]></style></defs><g class="transform-group"><g transform="scale(0.1953125, 0.1953125)"><path d="M513.118985 958.734554c-100.431364 0-190.112895-9.152451-252.55197-25.783223-36.428677-9.120728-63.712067-20.052708-83.399455-33.404808-27.822672-17.620309-43.139519-41.556465-43.139519-67.446112 0-31.66007 13.015432-56.558134 38.694277-74.018807l0.367367-0.240477c26.64587-17.135262 67.909669-26.26213 122.648364-27.13808l0.556679 34.502815c-47.390333 0.7552-83.46904 8.207939-104.355743 21.540595-16.183588 11.07115-23.407106 25.065885-23.407106 45.353954 0 17.543561 14.842033 30.575366 27.28953 38.417985l0.51677 0.335644c16.309454 11.120268 40.098253 20.493753 72.735581 28.658713l0.252757 0.063445c59.631122 15.898085 146.212036 24.656563 243.791445 24.656563 97.300047 0 183.265954-8.749268 242.054895-24.64019l0.316202-0.088004c32.606629-8.15268 56.397475-17.522072 72.730465-28.649504l0.521886-0.335644c12.05864-7.601118 26.439162-20.434401 26.439162-38.417985 0-11.780301-5.346775-22.611997-16.824177-34.088376-10.763135-10.756995-25.614377-19.591197-44.144406-26.26213-18.283412-6.576789-40.380686-9.91379-65.667605-9.91379l0-34.501792c29.286 0 55.307653 4.02364 77.353762 11.95017 23.346731 8.397251 42.468231 19.949354 56.850799 34.328853 17.876136 17.869996 26.933419 37.546128 26.933419 58.486042 0 26.228361-15.011902 50.17168-42.291199 67.446112-19.699668 13.352099-46.984081 24.290219-83.364663 33.392528C701.497377 949.817464 614.744547 958.734554 513.118985 958.734554L513.118985 958.734554zM514.794138 829.151243c-19.1215 0-35.494399-8.15268-47.339168-23.571858l-0.138146-0.192382c-45.038776-60.307527-87.301322-119.773897-147.157571-213.951837-61.554938-98.308003-96.852862-186.204889-96.939843-241.306858-0.837064-37.362956 6.40999-74.227562 21.531386-109.564371 14.455223-33.789571 35.331693-64.475454 62.053288-91.198072 56.255235-56.270585 132.013663-87.592964 207.990055-85.962837 76.41846-1.635243 152.23931 29.554106 208.219275 85.562724 26.699082 26.716478 47.545876 57.458643 61.963237 91.373057 15.034415 35.366486 22.230304 72.306816 21.391193 109.789499-0.084934 55.101969-35.383882 142.992715-96.875374 241.199411-54.665017 87.303368-96.857978 146.632615-147.214876 214.059284C551.102065 820.282249 533.365098 829.151243 514.794138 829.151243L514.794138 829.151243zM494.888785 784.636401c5.40715 7.019881 11.368932 10.008958 19.905352 10.008958 7.653307 0 15.265682-3.804652 19.860327-9.931187 49.811476-66.701145 91.553159-125.394918 145.597029-211.69647 57.367569-91.62172 91.615581-175.022199 91.615581-223.090984l0.004093-0.401136c1.474584-63.895239-25.222451-128.105656-73.262584-176.168302-49.444109-49.468668-116.276237-76.967976-183.425589-75.455529l-0.251733-11.31879-0.138146 11.32493-0.125867-11.411911-0.26299 11.405771c-66.753333-1.537006-133.478014 26.118867-183.196369 75.856665-48.171116 48.182372-74.956156 112.24441-73.486688 175.766143l0.004093 0.401136c0 48.074925 34.256198 131.475404 91.62172 223.090984C408.521742 666.142659 450.343243 724.989929 494.888785 784.636401L494.888785 784.636401zM511.852132 467.534276c-59.08877 0-107.156532-48.072879-107.156532-107.159602 0-59.08877 48.067762-107.162672 107.156532-107.162672 59.087747 0 107.160625 48.073902 107.160625 107.162672C619.012757 419.461397 570.939879 467.534276 511.852132 467.534276L511.852132 467.534276zM511.852132 287.712771c-40.060391 0-72.655763 32.595372-72.655763 72.661903 0 40.065508 32.595372 72.65474 72.655763 72.65474 40.064484 0 72.659857-32.596396 72.659857-72.65474C584.511989 320.30712 551.91764 287.712771 511.852132 287.712771L511.852132 287.712771zM296.294728 765.205862c9.535167 0 17.039072-7.78122 17.039072-17.308201l0 0c0-9.535167-8.060583-17.194614-17.59575-17.194614L296.294728 765.205862zM711.30065 744.68755c0 9.531074 7.708566 17.149589 17.244756 17.149589l0.01842-34.411741C719.026612 727.425398 711.30065 735.154429 711.30065 744.68755L711.30065 744.68755 711.30065 744.68755zM711.30065 744.68755" fill="#272636"></path></g></g></svg>