<?xml version="1.0" standalone="no"?><!DOCTYPE svg PUBLIC "-//W3C//DTD SVG 1.1//EN" "http://www.w3.org/Graphics/SVG/1.1/DTD/svg11.dtd"><svg width="200" height="200" viewBox="0 0 200 200" version="1.1" xmlns="http://www.w3.org/2000/svg" xmlns:xlink="http://www.w3.org/1999/xlink"><defs><style type="text/css"><![CDATA[
@font-face { font-family: ifont; src: url("http://at.alicdn.com/t/font_1442373896_4754455.eot?#iefix") format("embedded-opentype"), url("http://at.alicdn.com/t/font_1442373896_4754455.woff") format("woff"), url("http://at.alicdn.com/t/font_1442373896_4754455.ttf") format("truetype"), url("http://at.alicdn.com/t/font_1442373896_4754455.svg#ifont") format("svg"); }

]]></style></defs><g class="transform-group"><g transform="scale(0.1953125, 0.1953125)"><path d="M917.408 902.688l-244.064-244.064c59.968-63.136 96.96-148.224 96.96-242.112 0-194.4-157.6-352-352-352s-352 157.6-352 352c0 194.368 157.6 352 352 352 77.344 0 148.672-25.248 206.752-67.552l247.04 247.04c12.544 12.512 32.736 12.512 45.28 0C929.92 935.424 929.92 915.232 917.408 902.688zM418.304 711.2c-159.04 0-288-128.96-288-288 0-159.072 128.96-288 288-288 159.072 0 288 128.96 288 288C706.304 582.208 577.376 711.2 418.304 711.2z" fill="#272636"></path></g></g></svg>