<?xml version="1.0" standalone="no"?><!DOCTYPE svg PUBLIC "-//W3C//DTD SVG 1.1//EN" "http://www.w3.org/Graphics/SVG/1.1/DTD/svg11.dtd"><svg width="128" height="128" viewBox="0 0 128 128" version="1.1" xmlns="http://www.w3.org/2000/svg" xmlns:xlink="http://www.w3.org/1999/xlink"><defs><style type="text/css"><![CDATA[
@font-face { font-family: ifont; src: url("http://at.alicdn.com/t/font_1442373896_4754455.eot?#iefix") format("embedded-opentype"), url("http://at.alicdn.com/t/font_1442373896_4754455.woff") format("woff"), url("http://at.alicdn.com/t/font_1442373896_4754455.ttf") format("truetype"), url("http://at.alicdn.com/t/font_1442373896_4754455.svg#ifont") format("svg"); }

]]></style></defs><g class="transform-group"><g transform="scale(0.125, 0.125)"><path d="M923.7504 827.6992C900.8128 761.7536 861.696 701.44 810.5984 653.312c-11.0592-10.4448-28.5696-9.9328-39.0144 1.2288s-9.9328 28.5696 1.2288 39.0144c44.6464 41.984 78.848 94.72 98.816 152.2688 7.8848 22.6304 4.4032 46.8992-9.5232 66.4576-13.9264 19.6608-35.7376 30.9248-59.904 30.9248L221.7984 943.2064c-24.064 0-45.8752-11.264-59.904-30.9248-13.9264-19.5584-17.408-43.7248-9.5232-66.4576 51.712-148.8896 175.4112-234.3936 339.3536-234.7008 6.7584 0.4096 13.4144 0.7168 20.2752 0.7168 78.336 0 151.8592-30.5152 207.2576-85.8112 55.3984-55.3984 85.8112-129.024 85.8112-207.2576 0-78.336-30.5152-151.8592-85.8112-207.2576C663.8592 56.1152 590.336 25.6 512 25.6c-78.336 0-151.8592 30.5152-207.2576 85.8112-55.3984 55.3984-85.8112 129.024-85.8112 207.2576 0 78.336 30.5152 151.8592 85.8112 207.2576 18.3296 18.3296 38.7072 33.9968 60.6208 46.6944-1.7408 0.512-3.584 1.024-5.3248 1.536-40.96 12.0832-78.848 30.0032-112.5376 53.4528-33.5872 23.3472-63.1808 52.3264-87.9616 85.9136-24.7808 33.5872-44.7488 71.9872-59.392 114.176-7.0656 20.1728-8.9088 41.0624-5.632 61.8496 3.072 19.5584 10.752 38.4 22.3232 54.6816 11.5712 16.2816 26.9312 29.7984 44.4416 39.1168 18.6368 9.9328 39.0144 14.9504 60.416 14.9504l580.4032 0c21.4016 0 41.7792-5.0176 60.416-14.9504 17.5104-9.3184 32.8704-22.8352 44.4416-39.1168 11.5712-16.2816 19.2512-35.1232 22.3232-54.6816C932.6592 868.7616 930.816 847.9744 923.7504 827.6992zM274.1248 318.7712C274.1248 187.5968 380.8256 80.896 512 80.896s237.8752 106.7008 237.8752 237.8752c0 78.7456-38.5024 148.6848-97.6896 192C605.184 543.5392 533.0944 555.7248 493.568 555.9296 370.9952 546.4064 274.1248 443.6992 274.1248 318.7712z" fill="#272636"></path></g></g></svg>