<?xml version="1.0" standalone="no"?><!DOCTYPE svg PUBLIC "-//W3C//DTD SVG 1.1//EN" "http://www.w3.org/Graphics/SVG/1.1/DTD/svg11.dtd"><svg width="200" height="200" viewBox="0 0 200 200" version="1.1" xmlns="http://www.w3.org/2000/svg" xmlns:xlink="http://www.w3.org/1999/xlink"><defs><style type="text/css"><![CDATA[
@font-face { font-family: ifont; src: url("http://at.alicdn.com/t/font_1442373896_4754455.eot?#iefix") format("embedded-opentype"), url("http://at.alicdn.com/t/font_1442373896_4754455.woff") format("woff"), url("http://at.alicdn.com/t/font_1442373896_4754455.ttf") format("truetype"), url("http://at.alicdn.com/t/font_1442373896_4754455.svg#ifont") format("svg"); }

]]></style></defs><g class="transform-group"><g transform="scale(0.1953125, 0.1953125)"><path d="M570.834958 400.708512c13.229031-13.26001 20.951795-31.851405 20.951795-50.588501 0-18.738695-7.722764-37.30111-20.951795-50.532139-13.261009-13.229031-31.882384-20.980775-50.561519-20.980775-18.737296 0-37.300111 7.751744-50.530141 20.980775-13.26001 13.231029-20.981774 31.793444-20.981774 50.532139 0 18.708316 7.721765 37.328691 20.981774 50.588501 13.23003 13.258411 31.792844 20.922814 50.530141 20.922814C538.952574 421.631326 557.573949 413.967122 570.834958 400.708512zM515.260837 831.326553c13.900575 0 27.013685-6.409654 35.289873-17.338245 76.815719-101.033299 252.334317-345.11861 252.334317-467.045143 0-156.109758-128.804271-282.552629-287.624191-282.552629-158.848501 0-287.593811 126.442872-287.593811 282.552629 0 121.926534 175.517999 366.069805 252.332319 467.045143C488.306712 824.97286 501.390241 831.326553 515.260837 831.326553zM515.260837 115.883023c129.707658 0 235.199934 103.655522 235.199934 231.060141 0 68.424009-81.82832 220.075189-215.411351 400.894194-4.604878 6.207791-11.947899 9.909282-19.788583 9.909282-7.810704 0-15.153726-3.70149-19.699044-9.909282-133.641591-180.819005-215.498892-332.470185-215.498892-400.894194C280.062901 219.538345 385.583558 115.883023 515.260837 115.883023zM871.250476 754.336952c-13.812635-16.087093-32.637872-29.404064-54.638755-38.4957-17.865887-7.402981-37.652472-10.986551-58.196343-12.531504l-35.755758 56.389568c5.682148 0.699526 10.315006 0.347764 14.628082 0.641565l30.393393 1.572934c42.343091 6.293733 63.354845 27.449389 68.861112 33.891022 6.235772 7.285061 10.171104 15.53147 10.171104 21.359518 0 9.997222-17.835907 34.356706-85.297968 54.872796-62.417481 18.855216-150.483572 29.258163-247.991262 29.258163-97.592033 0-186.181169-10.548848-249.476655-29.635907-68.538931-20.691971-86.664442-45.141194-86.664442-55.164399 0-14.280318 3.758851-22.730589 13.462872-30.305453 13.026568-10.259044 34.618928-16.93252 63.70261-19.992445 0.582005 0 2.331419-0.145901 3.671511-0.233841 3.235207-0.201863 10.578228-0.757486 28.528658-1.950677 4.197154-0.467683 8.743072-0.409722 14.105437-1.051287l-35.844098-55.396241c-45.459978 2.884045-79.204699 12.473543-101.527964 29.957489-23.546036 18.561415-35.551896 45.021475-35.551896 78.972257 0 27.741191 13.287391 51.840652 39.457048 71.949019 20.106768 15.473309 48.519904 28.850439 84.422562 39.74885 67.198839 20.254268 160.100052 31.414701 261.714358 31.414701 101.500982 0 194.024052-11.014532 260.290923-31.152878 35.551696-10.724729 63.64265-24.01172 83.577135-39.573169 25.760534-19.990446 38.873644-44.180046 38.873644-71.717176C896.165584 795.04715 887.509453 773.278109 871.250476 754.336952z" fill="#272636"></path></g></g></svg>