<?xml version="1.0" standalone="no"?><!DOCTYPE svg PUBLIC "-//W3C//DTD SVG 1.1//EN" "http://www.w3.org/Graphics/SVG/1.1/DTD/svg11.dtd"><svg width="200" height="200" viewBox="0 0 200 200" version="1.1" xmlns="http://www.w3.org/2000/svg" xmlns:xlink="http://www.w3.org/1999/xlink"><defs><style type="text/css"><![CDATA[
@font-face { font-family: ifont; src: url("http://at.alicdn.com/t/font_1442373896_4754455.eot?#iefix") format("embedded-opentype"), url("http://at.alicdn.com/t/font_1442373896_4754455.woff") format("woff"), url("http://at.alicdn.com/t/font_1442373896_4754455.ttf") format("truetype"), url("http://at.alicdn.com/t/font_1442373896_4754455.svg#ifont") format("svg"); }

]]></style></defs><g class="transform-group"><g transform="scale(0.1953125, 0.1953125)"><path d="M83.366709 897.464095c-34.56626 0-62.686714-28.101012-62.686714-62.641689L20.679995 175.678138c0-34.544771 28.120454-62.648852 62.686714-62.648852l588.471672 0c34.565237 0 62.686714 28.104081 62.686714 62.648852l0 156.854421-0.001023 8.256034c-0.065492 15.022135-12.308327 27.223015-27.349905 27.223015-15.038508 0-27.281343-12.201903-27.343765-27.225061 0.00307-0.104377 0.004093-8.253988 0.004093-8.253988l-0.049119 0L679.785378 222.76455c0-19.535939-1.909489-34.458813-11.234879-43.790342-9.325389-9.331529-24.239054-11.244089-43.760666-11.244089L130.453121 167.730119c-19.537985 0-34.462906 1.911536-43.792389 11.242042s-11.242042 24.254404-11.242042 43.792389L75.41869 787.733948c0 19.534915 1.911536 34.458813 11.241019 43.790342 9.332553 9.332553 24.25645 11.245112 43.793412 11.245112l494.335688 0c19.521612 0 34.434254-1.912559 43.760666-11.247158 9.325389-9.332553 11.234879-24.254404 11.234879-43.788296l0-45.903469 0.005117-1.152243c0.060375-15.031345 12.335956-27.2619 27.367301-27.2619 15.027252 0 27.301809 12.230556 27.362184 27.2619l0.005117 1.354857 0 92.789313c0 34.540677-28.121478 62.641689-62.686714 62.641689L83.366709 897.464095zM704.084807 638.767172c-7.127328 0-13.788028-2.665713-18.885116-7.521301l-0.543376-0.607844L520.15268 466.096531c-5.169743-5.154393-8.011464-12.004405-8.010441-19.297508 0.001023-7.290033 2.841721-14.137998 7.999185-19.280112 5.15644-5.158487 12.003382-7.993045 19.289322-7.993045 7.287987 0 14.148231 2.838651 19.313881 7.990998L703.997825 572.765969l263.659959-263.659959c5.166673-5.16565 12.040221-8.010441 19.352767-8.010441 7.311523 0 14.183024 2.844791 19.34765 8.010441 10.666944 10.667967 10.666944 28.02938-0.001023 38.702464L723.493855 630.635981c-0.203638 0.214894-0.384763 0.426719-0.542352 0.629333-5.102205 4.842285-11.761881 7.500834-18.832927 7.500834L704.084807 638.766149zM189.269691 615.018282c-15.069207 0-27.328415-12.276604-27.328415-27.367301s12.259208-27.367301 27.328415-27.367301l211.894991 0c15.069207 0 27.328415 12.276604 27.328415 27.367301s-12.259208 27.367301-27.328415 27.367301L189.269691 615.018282zM189.269691 450.214818c-15.069207 0-27.328415-12.276604-27.328415-27.366278 0-15.092743 12.259208-27.372418 27.328415-27.372418l211.894991 0c15.069207 0 27.328415 12.278651 27.328415 27.372418 0 15.089673-12.259208 27.366278-27.328415 27.366278L189.269691 450.214818z" fill="#272636"></path></g></g></svg>