<?xml version="1.0" standalone="no"?><!DOCTYPE svg PUBLIC "-//W3C//DTD SVG 1.1//EN" "http://www.w3.org/Graphics/SVG/1.1/DTD/svg11.dtd"><svg width="128" height="128" viewBox="0 0 128 128" version="1.1" xmlns="http://www.w3.org/2000/svg" xmlns:xlink="http://www.w3.org/1999/xlink"><defs><style type="text/css"><![CDATA[
@font-face { font-family: ifont; src: url("http://at.alicdn.com/t/font_1442373896_4754455.eot?#iefix") format("embedded-opentype"), url("http://at.alicdn.com/t/font_1442373896_4754455.woff") format("woff"), url("http://at.alicdn.com/t/font_1442373896_4754455.ttf") format("truetype"), url("http://at.alicdn.com/t/font_1442373896_4754455.svg#ifont") format("svg"); }

]]></style></defs><g class="transform-group"><g transform="scale(0.125, 0.125)"><path d="M905.043724 959.661669c-14.145162 0-28.291346-5.443989-39.028898-16.310477L90.017176 157.762093c-21.304212-21.561062-21.090341-56.293097 0.471744-77.597309 21.561062-21.272489 56.282864-21.090341 77.587076 0.481977l775.99765 785.589099c21.304212 21.561062 21.090341 56.293097-0.471744 77.597309C932.906306 954.388573 918.975015 959.661669 905.043724 959.661669zM118.951159 949.555497c-14.274098 0-28.548196-5.54018-39.308261-16.578584-21.132296-21.700231-20.683065-56.443523 1.028423-77.587076L866.250186 90.013083c21.668509-21.132296 56.432267-20.704554 77.587076 1.006933 21.132296 21.701255 20.683065 56.443523-1.028423 77.587076L157.230997 933.98487C146.57838 944.379615 132.754536 949.555497 118.951159 949.555497z" fill="#272636"></path></g></g></svg>