<?xml version="1.0" standalone="no"?><!DOCTYPE svg PUBLIC "-//W3C//DTD SVG 1.1//EN" "http://www.w3.org/Graphics/SVG/1.1/DTD/svg11.dtd"><svg width="200" height="200" viewBox="0 0 200 200" version="1.1" xmlns="http://www.w3.org/2000/svg" xmlns:xlink="http://www.w3.org/1999/xlink"><defs><style type="text/css"><![CDATA[
@font-face { font-family: ifont; src: url("//at.alicdn.com/t/font_1442373896_4754455.eot?#iefix") format("embedded-opentype"), url("//at.alicdn.com/t/font_1442373896_4754455.woff") format("woff"), url("//at.alicdn.com/t/font_1442373896_4754455.ttf") format("truetype"), url("//at.alicdn.com/t/font_1442373896_4754455.svg#ifont") format("svg"); }

]]></style></defs><g class="transform-group"><g transform="scale(0.1953125, 0.1953125)"><path d="M929.195797 174.066431 551.098483 174.066431l0 46.036499 350.064864 0c12.161994 0 22.112624 9.950629 22.112624 22.112624l0 527.106046c0 12.161994-9.950629 22.112624-22.112624 22.112624L762.425539 791.434224l0 46.036499 166.770258 0c22.00927 0 40.016389-18.007119 40.016389-40.016389L969.212186 214.083843C969.213209 192.074573 951.205067 174.066431 929.195797 174.066431zM619.556645 415.418314l247.043512 0 0 40.677445-247.043512 0 0-40.677445ZM679.085436 550.350446l187.514721 0 0 40.677445-187.514721 0 0-40.677445ZM352.978217 179.883927c-106.657158 3.273557-192.537108 89.153506-195.811688 195.811688-3.526313 116.227118 92.176352 211.929784 208.40347 208.40347 106.657158-3.273557 192.537108-89.153506 195.811688-195.811688C564.908 272.186146 469.080491 176.358637 352.978217 179.883927zM359.27462 538.01142c-86.131683 0-156.019403-69.88772-156.019403-156.019403s69.88772-156.019403 156.019403-156.019403 156.019403 69.88772 156.019403 156.019403S445.406303 538.01142 359.27462 538.01142zM94.351901 810.06249c22.917966-125.546368 132.849704-220.744543 265.069051-220.744543s242.025219 95.198176 264.943185 220.744543l1.763157 8.311293c0 0 2.644223 11.836583 16.118096 16.369829 3.778046 1.25969 9.695826 1.763157 14.859429 0.3776 4.533246-1.25969 8.563026-4.155646 10.829649-6.296403 8.311293-8.05956 7.55507-18.762319 7.55507-18.762319-23.421432-153.626913-156.14527-271.239588-316.194452-271.239588S66.523089 656.4366 43.100634 810.06249c0 0-2.140757 20.777209 19.266809 25.310456 6.548136 1.385557 10.200316 0.881067 14.480806-0.629333 1.511423-0.503467 2.644223-1.006933 3.778046-1.763157 9.821693-5.54018 11.836583-14.606673 11.836583-14.606673L94.351901 810.06249zM619.556645 291.400766l247.043512 0 0 40.677445-247.043512 0 0-40.677445Z" fill="#272636"></path></g></g></svg>