<?xml version="1.0" standalone="no"?><!DOCTYPE svg PUBLIC "-//W3C//DTD SVG 1.1//EN" "http://www.w3.org/Graphics/SVG/1.1/DTD/svg11.dtd"><svg width="200" height="200" viewBox="0 0 200 200" version="1.1" xmlns="http://www.w3.org/2000/svg" xmlns:xlink="http://www.w3.org/1999/xlink"><defs><style type="text/css"><![CDATA[
@font-face { font-family: ifont; src: url("http://at.alicdn.com/t/font_1442373896_4754455.eot?#iefix") format("embedded-opentype"), url("http://at.alicdn.com/t/font_1442373896_4754455.woff") format("woff"), url("http://at.alicdn.com/t/font_1442373896_4754455.ttf") format("truetype"), url("http://at.alicdn.com/t/font_1442373896_4754455.svg#ifont") format("svg"); }

]]></style></defs><g class="transform-group"><g transform="scale(0.1953125, 0.1953125)"><path d="M747.294464 958.409274 288.099005 958.409274c-34.171196 0-61.928321-27.873782-61.928321-62.107399L226.170684 127.335876c0-34.298085 27.757125-62.171867 61.928321-62.171867l459.195459 0c34.117984 0 61.871016 27.873782 61.871016 62.171867L809.165479 896.301875C809.165479 930.535492 781.412448 958.409274 747.294464 958.409274L747.294464 958.409274zM288.099005 95.594004c-17.351145 0-31.498325 14.234161-31.498325 31.741872L256.60068 896.301875c0 17.472918 14.14718 31.678427 31.498325 31.678427l459.195459 0c17.356262 0 31.44102-14.205508 31.44102-31.678427L778.735484 127.335876c0-17.506687-14.084758-31.741872-31.44102-31.741872L288.099005 95.594004 288.099005 95.594004zM517.698781 891.844362c-22.345893 0-40.477819-18.217884-40.477819-40.593452s18.131926-40.594476 40.477819-40.594476c22.347939 0 40.473726 18.218907 40.473726 40.594476S540.04672 891.844362 517.698781 891.844362L517.698781 891.844362zM517.698781 841.086429c-5.526866 0-10.041684 4.548587-10.041684 10.16448 0 11.233833 20.086437 11.233833 20.086437 0C527.742511 845.635016 523.22667 841.086429 517.698781 841.086429L517.698781 841.086429zM735.644146 781.295791l-438.629092 0c-8.377791 0-15.21244-6.804973-15.21244-15.216533L281.802614 150.451293c0-8.407467 6.834648-15.21244 15.21244-15.21244l438.629092 0c8.382908 0 15.216533 6.804973 15.216533 15.21244l0 615.627965C750.860679 774.490818 744.027054 781.295791 735.644146 781.295791L735.644146 781.295791zM312.23261 750.866819l408.199097 0L720.431706 165.668849 312.23261 165.668849 312.23261 750.866819 312.23261 750.866819zM312.23261 750.866819" fill="#272636"></path></g></g></svg>