<?xml version="1.0" standalone="no"?><!DOCTYPE svg PUBLIC "-//W3C//DTD SVG 1.1//EN" "http://www.w3.org/Graphics/SVG/1.1/DTD/svg11.dtd"><svg width="200" height="200" viewBox="0 0 200 200" version="1.1" xmlns="http://www.w3.org/2000/svg" xmlns:xlink="http://www.w3.org/1999/xlink"><defs><style type="text/css"><![CDATA[
@font-face { font-family: ifont; src: url("http://at.alicdn.com/t/font_1442373896_4754455.eot?#iefix") format("embedded-opentype"), url("http://at.alicdn.com/t/font_1442373896_4754455.woff") format("woff"), url("http://at.alicdn.com/t/font_1442373896_4754455.ttf") format("truetype"), url("http://at.alicdn.com/t/font_1442373896_4754455.svg#ifont") format("svg"); }

]]></style></defs><g class="transform-group"><g transform="scale(0.1953125, 0.1953125)"><path d="M956.881346 335.574848M843.588047 650.266064c13.187347 0 23.915689 10.734482 23.915689 23.921829l0 213.211986c0 13.187347-10.728342 23.916712-23.915689 23.916712L549.353746 911.316591c-13.187347 0-23.916712-10.729365-23.916712-23.916712L525.437034 674.187893c0-13.187347 10.729365-23.921829 23.916712-23.921829L843.588047 650.266064M843.588047 599.562265 549.353746 599.562265c-41.213657 0-74.621535 33.411971-74.621535 74.625628l0 213.211986c0 41.209564 33.411971 74.621535 74.621535 74.621535l294.234301 0c41.213657 0 74.620511-33.411971 74.620511-74.621535L918.208559 674.187893C918.207535 632.974235 884.796588 599.562265 843.588047 599.562265L843.588047 599.562265 843.588047 599.562265zM781.753747 759.238964 617.582687 759.238964c-13.999852 0-25.354458-11.351536-25.354458-25.355481 0-13.998829 11.354606-25.354458 25.354458-25.354458l164.17106 0c14.004969 0 25.354458 11.355629 25.354458 25.354458C807.108205 747.888452 795.758716 759.238964 781.753747 759.238964L781.753747 759.238964zM724.186633 865.84598 617.582687 865.84598c-13.999852 0-25.354458-11.349489-25.354458-25.354458 0-14.003945 11.354606-25.354458 25.354458-25.354458l106.603947 0c14.004969 0 25.354458 11.350512 25.354458 25.354458C749.541091 854.496491 738.190579 865.84598 724.186633 865.84598L724.186633 865.84598zM390.525368 938.340061c-2.199085 0-4.431939-0.285502-6.659677-0.88823-2.712785-0.73985-67.26294-18.390859-132.933615-46.76714-97.453542-42.108027-144.82341-85.028559-144.82341-131.213437 0-28.022217 16.83441-53.335742 50.037626-75.234495 22.424732-14.788821 53.100382-28.52466 91.179652-40.83708 41.295522-13.351076 82.128509-22.13309 106.108666-26.714432l0-47.312562c-35.966143-37.761022-61.546751-78.477352-78.04654-124.168997-16.349363-45.25981-24.297382-97.289814-24.297382-159.059646 0-142.128021 75.296917-223.6405 206.584032-223.6405 68.769246 0 125.570927 24.746614 164.262134 71.567989 34.659381 41.944298 52.981678 98.950639 52.981678 164.865885 0 122.772184-60.711733 198.386326-63.297628 201.548342-8.867972 10.832719-24.840758 12.4301-35.678594 3.565199-10.815323-8.846482-12.426007-24.774243-3.621481-35.606962 0.340761-0.425695 13.328563-16.812921 26.103518-45.696762 11.762905-26.606984 25.790386-69.681012 25.790386-123.809817 0-43.569308-12.012591-185.730075-166.540014-185.730075-53.653991 0-93.951789 15.977903-119.777991 47.484478-23.952528 29.228695-36.097126 71.437006-36.097126 125.452223 0 113.690342 27.496238 187.56691 94.912673 254.979252 4.754281 4.754281 7.427156 11.20418 7.427156 17.929348l0 78.871325c0 12.497639-9.109472 23.153326-21.461801 25.072025-0.599657 0.092098-61.029982 9.613962-120.249735 28.812209-77.869508 25.244964-105.615433 51.508117-105.615433 67.662029 0 17.025769 29.890774 48.158836 113.785509 84.473927 62.372559 26.996864 125.928061 44.398186 126.563534 44.571125 13.509688 3.674693 21.485337 17.605983 17.814738 31.115672-3.066849 11.287067-13.291724 18.7132-24.447808 18.7132L390.525368 938.340061zM390.525368 938.340061" fill="#272636"></path></g></g></svg>