<?xml version="1.0" standalone="no"?><!DOCTYPE svg PUBLIC "-//W3C//DTD SVG 1.1//EN" "http://www.w3.org/Graphics/SVG/1.1/DTD/svg11.dtd"><svg width="210.3515625" height="200" viewBox="0 0 210.3515625 200" version="1.1" xmlns="http://www.w3.org/2000/svg" xmlns:xlink="http://www.w3.org/1999/xlink"><defs><style type="text/css"><![CDATA[
@font-face { font-family: ifont; src: url("//at.alicdn.com/t/font_1442373896_4754455.eot?#iefix") format("embedded-opentype"), url("//at.alicdn.com/t/font_1442373896_4754455.woff") format("woff"), url("//at.alicdn.com/t/font_1442373896_4754455.ttf") format("truetype"), url("//at.alicdn.com/t/font_1442373896_4754455.svg#ifont") format("svg"); }

]]></style></defs><g class="transform-group"><g transform="scale(0.1953125, 0.1953125)"><path d="M583.586 553.316c-13.535 13.535-32.903 17.005-49.932 11.468-17.030 5.537-36.398 2.067-49.932-11.468 0 0-437.306-437.306-437.306-437.306-19.22-19.22-19.22-50.375 0-69.595 19.22-19.22 50.375-19.22 69.595 0 0 0 417.643 417.619 417.643 417.619 0 0 417.643-417.619 417.643-417.619 19.22-19.22 50.375-19.22 69.595 0 19.22 19.22 19.22 50.375 0 69.595 0 0-437.306 437.306-437.306 437.306zM116.009 464.772c0 0 417.643 417.643 417.643 417.643s417.643-417.643 417.643-417.643c19.22-19.22 50.375-19.22 69.595 0 19.22 19.22 19.22 50.375 0 69.595 0 0-437.306 437.306-437.306 437.306-13.535 13.535-32.903 17.005-49.932 11.467-17.030 5.537-36.398 2.067-49.932-11.467 0 0-437.306-437.306-437.306-437.306-19.22-19.22-19.22-50.375 0-69.595 19.22-19.22 50.375-19.22 69.595 0z" fill="#272636"></path></g></g></svg>