<?xml version="1.0" standalone="no"?><!DOCTYPE svg PUBLIC "-//W3C//DTD SVG 1.1//EN" "http://www.w3.org/Graphics/SVG/1.1/DTD/svg11.dtd"><svg width="200" height="200" viewBox="0 0 200 200" version="1.1" xmlns="http://www.w3.org/2000/svg" xmlns:xlink="http://www.w3.org/1999/xlink"><defs><style type="text/css"><![CDATA[
@font-face { font-family: ifont; src: url("http://at.alicdn.com/t/font_1442373896_4754455.eot?#iefix") format("embedded-opentype"), url("http://at.alicdn.com/t/font_1442373896_4754455.woff") format("woff"), url("http://at.alicdn.com/t/font_1442373896_4754455.ttf") format("truetype"), url("http://at.alicdn.com/t/font_1442373896_4754455.svg#ifont") format("svg"); }

]]></style></defs><g class="transform-group"><g transform="scale(0.1953125, 0.1953125)"><path d="M415.123602 337.812819l-91.449805 93.367481c47.629787 106.064664 148.614759 224.205365 265.796622 263.904529l79.087243-79.063707c0 0 187.453323 32.82357 229.596142 53.356208 36.513612 17.776875 48.588625 57.164954 42.862203 105.753579-6.133697 52.229548-74.319659 167.350472-197.203384 168.620395-122.907261 1.269923-303.843146-91.594091-433.482739-228.66084C180.688245 578.046229 65.087391 404.346141 83.58365 256.833483 102.07991 109.320824 230.16203 82.942037 262.220167 80.59355c32.391734-2.39556 58.122769 7.139607 77.649498 31.43392C365.002065 143.318126 415.123602 337.812819 415.123602 337.812819L415.123602 337.812819M311.262116 142.527111c-15.237029-20.005636-41.447994-23.336498-67.635423-17.154705-23.263843 5.486968-108.052948 40.777729-120.032794 135.294382C110.249987 365.773637 188.378391 543.619138 328.584644 679.703513c140.230812 136.060839 275.284717 215.507262 391.389038 224.995357 116.126834 9.488095 172.765809-93.055372 181.006494-123.842563 8.266267-30.810726 1.437745-61.932538-15.237029-74.318636-21.252023-15.789615-203.888643-48.588625-203.888643-48.588625l-82.872452 81.939197c-136.229684-44.467771-264.527722-168.95604-319.153854-321.070506l90.51655-91.449805C370.344746 327.344396 326.524728 162.532747 311.262116 142.527111L311.262116 142.527111M311.262116 142.527111" fill="#272636"></path></g></g></svg>