<?xml version="1.0" standalone="no"?><!DOCTYPE svg PUBLIC "-//W3C//DTD SVG 1.1//EN" "http://www.w3.org/Graphics/SVG/1.1/DTD/svg11.dtd"><svg width="188.75" height="128" viewBox="0 0 188.75 128" version="1.1" xmlns="http://www.w3.org/2000/svg" xmlns:xlink="http://www.w3.org/1999/xlink"><defs><style type="text/css"><![CDATA[
@font-face { font-family: ifont; src: url("http://at.alicdn.com/t/font_1442373896_4754455.eot?#iefix") format("embedded-opentype"), url("http://at.alicdn.com/t/font_1442373896_4754455.woff") format("woff"), url("http://at.alicdn.com/t/font_1442373896_4754455.ttf") format("truetype"), url("http://at.alicdn.com/t/font_1442373896_4754455.svg#ifont") format("svg"); }

]]></style></defs><g class="transform-group"><g transform="scale(0.125, 0.125)"><path d="M786.730934 956.285977 437.504688 956.285977c-53.147561 0-88.449557-27.532034-88.449557-93.11407L349.05513 159.265228c0-46.381482 42.068075-88.44829 88.449557-88.44829l592.045829 0c43.653756 0 88.449557 42.066808 88.449557 88.44829l0 420.888628c0 10.913439-15.576684 21.825611-26.491391 21.825611-10.913439 0-26.488856-10.912172-26.488856-21.825611L1065.019827 159.265228c0-16.368891-16.370159-32.73905-32.740317-32.73905L437.504688 126.526179c-16.368891 0-32.73905 16.370159-32.73905 32.73905l0 709.364665c0 18.730301 16.902521 32.73905 32.73905 32.73905l343.769527 0c10.913439 0 21.825611 16.742813 21.825611 27.657519C803.099825 942.668895 797.645641 956.285977 786.730934 956.285977L786.730934 956.285977 786.730934 956.285977zM769.241546 700.014091 519.352945 700.014091c-10.912172 0-21.825611-15.577952-21.825611-26.490123 0-10.915974 10.913439-26.493926 21.825611-26.493926l249.888601 0c10.914707 0 22.302202 11.596638 21.826878 28.826182C790.959417 689.526543 780.156253 700.014091 769.241546 700.014091L769.241546 700.014091 769.241546 700.014091zM944.973266 508.548514 519.354213 508.548514c-10.912172 0-21.826878-15.577952-21.826878-26.491391 0-10.915974 10.914707-26.491391 21.826878-26.491391l428.345511 0c10.915974 0 21.828146 15.575417 21.828146 26.491391C969.52787 492.970562 955.885437 508.548514 944.973266 508.548514L944.973266 508.548514 944.973266 508.548514zM944.973266 317.082937 519.354213 317.082937c-10.912172 0-21.825611-15.577952-21.825611-26.490123 0-10.914707 10.913439-26.491391 21.825611-26.491391l428.346779 0c10.912172 0 21.826878 15.576684 21.826878 26.491391C969.52787 301.504985 958.613163 317.082937 944.973266 317.082937L944.973266 317.082937 944.973266 317.082937zM1118.000074 848.102234c0-7.981641-3.456556-15.149527-8.955104-20.097966l0.002535-0.002535-90.153119-81.135906-0.002535 0c-4.789998-4.317209-11.132722-6.943533-18.090198-6.943533-14.936581 0-27.045302 12.106185-27.045302 27.042767 0 7.980373 3.457824 15.152062 8.953837 20.103036l0 0 37.763541 33.99137L843.035914 821.059467l0 0c-14.936581 0-27.045302 12.10872-27.045302 27.042767 0 14.941652 12.107453 27.045302 27.045302 27.045302l0 0 177.439083 0-37.763541 33.990102 0.002535 0.002535c-5.498548 4.949707-8.956372 12.120128-8.956372 20.100501 0 14.936581 12.10872 27.045302 27.045302 27.045302 6.957476 0 13.300199-2.630126 18.092733-6.944801l0 0.002535 90.153119-81.138441-0.002535 0C1114.544786 863.255563 1118.000074 856.082607 1118.000074 848.102234L1118.000074 848.102234M1145.107485 823.087517 1145.107485 823.087517z" fill="#272636"></path></g></g></svg>