<?xml version="1.0" standalone="no"?><!DOCTYPE svg PUBLIC "-//W3C//DTD SVG 1.1//EN" "http://www.w3.org/Graphics/SVG/1.1/DTD/svg11.dtd"><svg width="200" height="200" viewBox="0 0 200 200" version="1.1" xmlns="http://www.w3.org/2000/svg" xmlns:xlink="http://www.w3.org/1999/xlink"><defs><style type="text/css"><![CDATA[
@font-face { font-family: ifont; src: url("http://at.alicdn.com/t/font_1442373896_4754455.eot?#iefix") format("embedded-opentype"), url("http://at.alicdn.com/t/font_1442373896_4754455.woff") format("woff"), url("http://at.alicdn.com/t/font_1442373896_4754455.ttf") format("truetype"), url("http://at.alicdn.com/t/font_1442373896_4754455.svg#ifont") format("svg"); }

]]></style></defs><g class="transform-group"><g transform="scale(0.1953125, 0.1953125)"><path d="M642.919487 924.674006l-0.005117 0c-15.987081-0.005117-31.531071-6.615661-41.569685-17.691906-13.674413-14.994476-57.008274-53.985434-92.481113-53.985434-35.226222 0-79.231371 39.217108-91.869177 52.951897-10.014054 10.890003-25.447528 17.391054-41.283159 17.391054-7.544822 0-14.658832-1.447975-21.159883-4.302994l-1.136891-0.499372-107.816349-60.294104-1.071399-0.745989c-19.62902-13.739905-27.098117-40.615965-17.371611-62.512627 0.074701-0.167822 9.94447-22.943502 9.94447-43.709414 0-63.016093-51.272655-114.288748-114.288748-114.288748l-3.823064 0c-0.233313 0.005117-0.465603 0.010233-0.692777 0.010233-18.053132 0-32.750849-16.037223-37.449862-40.853372-0.374529-1.987257-9.198481-49.059248-9.198481-86.147883 0-37.089659 8.824975-84.166767 9.198481-86.153 4.753248-25.13235 19.77126-41.275996 38.141616-40.843139l3.823064 0c63.016093 0 114.288748-51.272655 114.288748-114.288748 0-20.759771-9.865675-43.531359-9.969029-43.758532-9.714226-21.876196-2.194987-48.748163 17.517944-62.443043l1.116425-0.774641 113.785282-62.502394 1.184986-0.503466c6.408954-2.733245 13.424727-4.115729 20.859032-4.115729 15.800839 0 31.263988 6.357789 41.372187 17.010385 13.468729 14.100108 56.036135 50.773282 90.49181 50.773282 34.12924 0 76.438774-35.945605 89.862478-49.80012 10.048847-10.434632 25.403526-16.683951 41.045753-16.683951 7.583707 0 14.731487 1.432626 21.243794 4.264108l1.151217 0.504489 109.901843 61.054419 1.081632 0.761338c19.663813 13.718415 27.153376 40.595499 17.42073 62.506488-0.074701 0.167822-9.945493 22.944526-9.945493 43.709414 0 63.016093 51.271631 114.288748 114.288748 114.288748l3.824088 0c18.34375-0.409322 33.383251 15.705672 38.139569 40.843139 0.375553 1.987257 9.199504 49.058224 9.199504 86.148907 0 37.088636-8.823952 84.165743-9.203598 86.153-4.753248 25.13235-19.792749 41.218691-38.140592 40.843139l-3.818971 0c-63.016093 0-114.288748 51.271631-114.288748 114.288748 0 20.760795 9.866699 43.526242 9.963913 43.753416 9.708087 21.86187 2.20829 48.738954-17.468825 62.448159l-1.102099 0.770548-111.754023 61.766639-1.166567 0.502442C657.302027 923.276172 650.309789 924.674006 642.919487 924.674006L642.919487 924.674006zM639.525187 872.02296c0.498349 0.325411 1.911532 0.879018 3.393277 0.879018 0.060375 0 0.118703 0 0.167822-0.005117l104.412839-57.706168c-2.519375-5.854323-14.045873-34.273526-14.045873-63.910461 0-88.642699 69.819019-161.289107 157.35041-165.833601 1.259687-6.956422 8.097406-46.089619 8.097406-75.451285 0-29.355526-6.837718-68.475421-8.097406-75.452308-87.530367-4.545517-157.35041-77.189879-157.35041-165.832578 0-29.682984 11.560267-58.134932 14.060199-63.945253l-102.718248-57.068649c-0.118703-0.005117-0.261966-0.013303-0.429788-0.013303-1.748827 0-3.38509 0.637518-3.928465 1.002838-1.724267 1.773386-16.614366 16.871216-38.002446 31.91481-31.658984 22.271192-61.592677 33.5654-88.978343 33.5654-27.651725 0-57.827941-11.515242-89.690562-34.227477-21.519063-15.335236-36.475677-30.724707-38.204037-32.528792-0.548491-0.370436-2.203174-1.028421-3.968374-1.028421-0.137123 0-0.261966 0.005117-0.36532 0.010233l-106.393956 58.435784c2.550074 5.929024 14.031547 34.297062 14.031547 63.880785 0 88.642699-69.819019 161.287061-157.35041 165.832578-1.259687 6.961538-8.097406 46.091666-8.097406 75.452308 0 29.35655 6.836695 68.471327 8.101499 75.446169 87.526274 4.548587 157.345293 77.190902 157.345293 165.833601 0 29.742335-11.606316 58.244426-14.075549 63.980046l100.697222 56.305264c0.064468 0.00614 0.140193 0.00614 0.22308 0.00614 1.472535 0 2.865252-0.538258 3.364624-0.859575 1.88288-2.021026 16.922381-17.939545 38.58573-33.818156 32.290363-23.666978 62.976184-35.666243 91.201983-35.666243 28.495951 0 59.414062 12.227461 91.892713 36.34674C622.545501 853.751865 637.647424 869.967142 639.525187 872.02296L639.525187 872.02296zM509.232986 661.62037c-83.92322 0-152.201143-68.277923-152.201143-152.20319 0-83.92322 68.277923-152.201143 152.201143-152.201143 83.925267 0 152.208306 68.277923 152.208306 152.201143C661.441292 593.34347 593.158252 661.62037 509.232986 661.62037L509.232986 661.62037zM509.232986 408.987041c-55.378151 0-100.43014 45.050965-100.43014 100.43014 0 55.379174 45.051989 100.436279 100.43014 100.436279 55.379174 0 100.436279-45.057105 100.436279-100.436279C609.670288 454.039029 564.617276 408.987041 509.232986 408.987041L509.232986 408.987041zM509.232986 408.987041" fill="#272636"></path></g></g></svg>