<?xml version="1.0" standalone="no"?><!DOCTYPE svg PUBLIC "-//W3C//DTD SVG 1.1//EN" "http://www.w3.org/Graphics/SVG/1.1/DTD/svg11.dtd"><svg width="200" height="200" viewBox="0 0 200 200" version="1.1" xmlns="http://www.w3.org/2000/svg" xmlns:xlink="http://www.w3.org/1999/xlink"><defs><style type="text/css"><![CDATA[
@font-face { font-family: ifont; src: url("//at.alicdn.com/t/font_1442373896_4754455.eot?#iefix") format("embedded-opentype"), url("//at.alicdn.com/t/font_1442373896_4754455.woff") format("woff"), url("//at.alicdn.com/t/font_1442373896_4754455.ttf") format("truetype"), url("//at.alicdn.com/t/font_1442373896_4754455.svg#ifont") format("svg"); }

]]></style></defs><g class="transform-group"><g transform="scale(0.1953125, 0.1953125)"><path d="M512 336.664c-96.68 0-175.336 78.656-175.336 175.336S415.32 687.336 512 687.336 687.336 608.68 687.336 512 608.68 336.664 512 336.664zM512 647.336c-74.624 0-135.336-60.712-135.336-135.336 0-74.624 60.712-135.336 135.336-135.336S647.336 437.376 647.336 512C647.336 586.624 586.624 647.336 512 647.336zM868 392l-38.672 0c-2.512-6.696-5.2-13.232-8.048-19.576l27.296-27.296c14.36-14.352 22.264-33.44 22.264-53.744 0-20.304-7.904-39.384-22.264-53.736l-62.216-62.232c-14.36-14.352-33.448-22.256-53.744-22.256s-39.384 7.904-53.744 22.256l-27.32 27.32c-6.456-2.92-12.984-5.64-19.552-8.128L632 156c0-41.904-34.096-76-76-76l-88 0c-41.904 0-76 34.096-76 76l0 38.696c-6.688 2.512-13.216 5.2-19.552 8.04l-27.32-27.32c-14.36-14.352-33.448-22.256-53.744-22.256s-39.384 7.904-53.744 22.256l-62.216 62.224c-14.36 14.352-22.264 33.44-22.264 53.744 0 20.304 7.904 39.384 22.264 53.736l27.312 27.32c-2.84 6.336-5.52 12.872-8.04 19.56L156 392c-41.904 0-76 34.096-76 76l0 88c0 41.904 34.096 76 76 76l38.672 0c2.512 6.696 5.2 13.232 8.048 19.576l-27.296 27.296c-14.36 14.36-22.264 33.448-22.264 53.744s7.904 39.384 22.264 53.744l62.216 62.216c14.36 14.36 33.448 22.264 53.744 22.264s39.384-7.904 53.744-22.264l27.32-27.312c6.464 2.92 12.984 5.64 19.552 8.136l0 38.6c0 41.904 34.096 76 76 76l88 0c41.904 0 76-34.096 76-76l0-38.696c6.688-2.512 13.216-5.192 19.552-8.04l27.32 27.312c14.36 14.36 33.448 22.264 53.744 22.264s39.384-7.904 53.744-22.264l62.216-62.216c14.36-14.36 22.264-33.448 22.264-53.744s-7.904-39.384-22.264-53.744l-27.312-27.32c2.84-6.336 5.52-12.864 8.04-19.552l38.696 0c41.904 0 76-34.096 76-76l0-88C944 426.096 909.904 392 868 392zM904 556c0 19.848-16.152 36-36 36l-67.296 0-4.536 13.72c-4.8 14.52-10.48 28.312-16.872 40.984l-6.52 12.92 47.528 47.528c6.8 6.808 10.544 15.84 10.544 25.464s-3.752 18.656-10.544 25.464l-62.216 62.216c-6.808 6.8-15.84 10.544-25.464 10.544s-18.656-3.752-25.464-10.544l-47.528-47.528-12.92 6.52c-12.672 6.4-26.464 12.08-40.984 16.872L592 800.704l0 67.296c0 19.848-16.152 36-36 36l-88 0c-19.848 0-36-16.152-36-36l0-67.192-13.744-4.52c-13.824-4.56-27.6-10.28-40.936-17.016l-12.92-6.52-47.552 47.552c-6.808 6.8-15.84 10.544-25.464 10.544s-18.656-3.752-25.464-10.544l-62.216-62.216c-6.8-6.808-10.544-15.84-10.544-25.464s3.752-18.656 10.544-25.464l47.52-47.52-6.528-12.92c-6.4-12.656-12.08-26.448-16.88-40.984L223.272 592 156 592c-19.848 0-36-16.152-36-36l0-88c0-19.848 16.152-36 36-36l67.296 0 4.536-13.72c4.8-14.52 10.48-28.312 16.872-40.976l6.528-12.92-47.536-47.544c-6.808-6.8-10.544-15.84-10.544-25.456 0-9.616 3.744-18.656 10.544-25.456l62.216-62.224c6.808-6.8 15.84-10.544 25.464-10.544s18.656 3.744 25.464 10.536l47.528 47.536 12.92-6.528c12.664-6.392 26.456-12.08 40.984-16.88L432 223.288 432 156c0-19.848 16.152-36 36-36l88 0c19.848 0 36 16.152 36 36l0 67.192 13.736 4.528c13.848 4.568 27.624 10.296 40.944 17.016l12.92 6.52 47.552-47.552c6.808-6.8 15.84-10.544 25.464-10.544s18.656 3.744 25.464 10.536l62.216 62.232c6.808 6.8 10.544 15.832 10.544 25.456 0 9.616-3.744 18.656-10.544 25.456l-47.52 47.52 6.528 12.928c6.408 12.664 12.088 26.448 16.88 40.984L800.728 432l67.272 0c19.848 0 36 16.152 36 36L904 556z" fill="#272636"></path></g></g></svg>