<?xml version="1.0" standalone="no"?><!DOCTYPE svg PUBLIC "-//W3C//DTD SVG 1.1//EN" "http://www.w3.org/Graphics/SVG/1.1/DTD/svg11.dtd"><svg width="200" height="200" viewBox="0 0 200 200" version="1.1" xmlns="http://www.w3.org/2000/svg" xmlns:xlink="http://www.w3.org/1999/xlink"><defs><style type="text/css"><![CDATA[
@font-face { font-family: ifont; src: url("http://at.alicdn.com/t/font_1442373896_4754455.eot?#iefix") format("embedded-opentype"), url("http://at.alicdn.com/t/font_1442373896_4754455.woff") format("woff"), url("http://at.alicdn.com/t/font_1442373896_4754455.ttf") format("truetype"), url("http://at.alicdn.com/t/font_1442373896_4754455.svg#ifont") format("svg"); }

]]></style></defs><g class="transform-group"><g transform="scale(0.1953125, 0.1953125)"><path d="M166.0928 860.5696c-5.9392 0-11.6736-2.4576-15.7696-6.9632-5.3248-5.9392-6.9632-14.5408-4.096-22.1184l41.5744-106.7008c-25.3952-28.0576-45.6704-58.9824-60.0064-92.16C111.0016 593.7152 102.4 552.96 102.4 511.1808c0-47.7184 11.0592-93.7984 32.768-137.216 20.8896-41.5744 50.7904-79.0528 88.6784-111.0016C301.4656 197.632 404.0704 161.792 513.024 161.792s211.5584 35.84 288.9728 101.1712c37.888 31.9488 67.7888 69.4272 88.6784 111.0016 21.7088 43.4176 32.768 89.7024 32.768 137.216 0 47.7184-11.0592 93.7984-32.768 137.216-20.8896 41.5744-50.7904 79.0528-88.6784 111.0016-77.4144 65.1264-180.0192 101.1712-288.9728 101.1712-67.3792 0-134.3488-14.336-193.9456-41.5744l-147.2512 40.7552C169.984 860.3648 167.936 860.5696 166.0928 860.5696L166.0928 860.5696zM321.1264 774.9632c3.2768 0 6.3488 0.6144 9.216 2.048 55.7056 26.624 118.784 40.7552 182.6816 40.7552 202.752 0 367.8208-137.6256 367.8208-306.5856 0-168.96-165.0688-306.5856-367.8208-306.5856S145.2032 342.016 145.2032 511.1808c0 35.84 7.3728 70.8608 21.9136 104.2432 14.1312 32.3584 34.6112 62.464 60.8256 89.4976 5.9392 5.9392 7.7824 14.9504 4.7104 22.7328l-31.1296 79.6672 113.8688-31.5392C317.2352 775.168 319.0784 774.9632 321.1264 774.9632L321.1264 774.9632zM321.1264 774.9632M335.4624 511.1808m-37.4784 0a18.3 18.3 0 1 0 74.9568 0 18.3 18.3 0 1 0-74.9568 0ZM513.024 511.1808m-37.4784 0a18.3 18.3 0 1 0 74.9568 0 18.3 18.3 0 1 0-74.9568 0ZM690.3808 511.1808m-37.4784 0a18.3 18.3 0 1 0 74.9568 0 18.3 18.3 0 1 0-74.9568 0Z" fill="#272636"></path></g></g></svg>